<?xml version="1.0" encoding="UTF-8"?>
<svg width="30px" height="30px" viewBox="0 0 30 30" version="1.1" xmlns="http://www.w3.org/2000/svg" xmlns:xlink="http://www.w3.org/1999/xlink">
    <!-- Generator: Sketch 53.2 (72643) - https://sketchapp.com -->
    <title>icon/librarybooks</title>
    <desc>Created with Sketch.</desc>
    <g id="_Skisser" stroke="none" stroke-width="1" fill="none" fill-rule="evenodd" fill-opacity="0.87">
        <g id="Desktop/Developer" transform="translate(-842.000000, -1800.000000)" fill="#000000">
            <g id="icon/librarybooks" transform="translate(839.000000, 1797.000000)">
                <path d="M6,9 L3,9 L3,30 C3,31.65 4.35,33 6,33 L27,33 L27,30 L6,30 L6,9 L6,9 Z M30,3 L12,3 C10.35,3 9,4.35 9,6 L9,24 C9,25.65 10.35,27 12,27 L30,27 C31.65,27 33,25.65 33,24 L33,6 C33,4.35 31.65,3 30,3 L30,3 Z M28.5,16.5 L13.5,16.5 L13.5,13.5 L28.5,13.5 L28.5,16.5 L28.5,16.5 Z M22.5,22.5 L13.5,22.5 L13.5,19.5 L22.5,19.5 L22.5,22.5 L22.5,22.5 Z M28.5,10.5 L13.5,10.5 L13.5,7.5 L28.5,7.5 L28.5,10.5 L28.5,10.5 Z" id="Shape"></path>
            </g>
        </g>
    </g>
</svg>